<svg width="50" height="50" viewBox="0 0 50 50" fill="none" xmlns="http://www.w3.org/2000/svg">
<path d="M24.5192 24.0385C31.1573 24.0385 36.5385 18.6573 36.5385 12.0192C36.5385 5.38119 31.1573 0 24.5192 0C17.8812 0 12.5 5.38119 12.5 12.0192C12.5 18.6573 17.8812 24.0385 24.5192 24.0385Z" fill="black"/>
<path d="M24.5 22C18.701 22 14 17.5228 14 12C14 6.47715 18.701 2 24.5 2C30.299 2 35 6.47715 35 12C35 17.5228 30.299 22 24.5 22Z" fill="#F5A623"/>
<path d="M39.3711 23.3115C38.8255 23.3115 38.306 23.4254 37.8342 23.63C37.2607 22.1806 35.8538 21.153 34.2121 21.153C33.6023 21.153 33.0247 21.295 32.5103 21.5474C31.8593 20.2923 30.5546 19.4328 29.0534 19.4328C28.6122 19.4328 28.1885 19.508 27.7926 19.6449V15.3236C27.7927 13.1593 26.044 11.3984 23.8944 11.3984C21.7449 11.3984 19.9964 13.1593 19.9964 15.3236V30.8733L17.1888 27.6613C17.1692 27.6393 17.1491 27.6178 17.1284 27.5971C16.3912 26.8594 15.41 26.4504 14.3657 26.4453C14.359 26.4453 14.3526 26.4453 14.3459 26.4453C13.304 26.4453 12.3286 26.8476 11.5976 27.5792C10.3085 28.8686 10.2372 30.7825 11.4023 32.8309C12.9106 35.481 14.5502 37.9797 15.9968 40.1846C17.054 41.796 18.0527 43.3179 18.7827 44.5763C19.4158 45.6683 21.0963 49.2098 21.1134 49.2455C21.3315 49.7057 21.7954 49.9991 22.3043 49.9991H38.9753C39.5481 49.9991 40.0551 49.6296 40.2307 49.0847C40.5416 48.1179 43.2692 39.5453 43.2692 36.2347V27.2371C43.269 25.0723 41.5205 23.3115 39.3711 23.3115Z" fill="white"/>
<path fill-rule="evenodd" clip-rule="evenodd" d="M37.8342 23.63C38.306 23.4254 38.8255 23.3115 39.3711 23.3115C41.5205 23.3115 43.269 25.0723 43.2692 27.2371V36.2347C43.2692 39.5453 40.5416 48.1179 40.2307 49.0847C40.0551 49.6296 39.5481 49.9991 38.9753 49.9991H22.3043C21.7954 49.9991 21.3315 49.7057 21.1134 49.2455C21.1128 49.2442 21.1101 49.2386 21.1055 49.2288C20.9787 48.9623 19.3934 45.6296 18.7827 44.5763C18.0541 43.3203 17.0578 41.8017 16.0028 40.1937L15.9968 40.1846L15.9955 40.1826C14.5492 37.9782 12.9102 35.4802 11.4023 32.8309C10.2372 30.7825 10.3085 28.8686 11.5976 27.5792C12.3286 26.8476 13.304 26.4453 14.3459 26.4453H14.3657C15.41 26.4504 16.3912 26.8594 17.1284 27.5971C17.1491 27.6178 17.1692 27.6393 17.1888 27.6613L19.9964 30.8733V15.3236C19.9964 13.1593 21.7449 11.3984 23.8944 11.3984C26.044 11.3984 27.7927 13.1593 27.7926 15.3236V19.6449C28.1885 19.508 28.6122 19.4328 29.0534 19.4328C30.5546 19.4328 31.8593 20.2923 32.5103 21.5474C33.0247 21.295 33.6023 21.153 34.2121 21.153C35.8538 21.153 37.2607 22.1806 37.8342 23.63ZM39.3711 25.9482C38.676 25.9482 38.1104 26.5263 38.1104 27.2369H38.1107V31.0736C38.1107 31.8015 37.5203 32.3921 36.7921 32.3921C36.064 32.3921 35.4737 31.8015 35.4737 31.0736V25.0782C35.4737 24.3676 34.9079 23.7897 34.2123 23.7897C33.5171 23.7897 32.9514 24.3676 32.9514 25.0782V29.3526C32.9514 30.0812 32.361 30.6711 31.6329 30.6711C30.905 30.6711 30.3147 30.081 30.3147 29.3526V23.3575C30.3147 22.6474 29.749 22.0697 29.0536 22.0697C28.3584 22.0697 27.7928 22.6474 27.7928 23.3575V27.6329C27.7928 28.361 27.2023 28.9513 26.4744 28.9513C25.7464 28.9513 25.156 28.361 25.156 27.6329V15.3235C25.156 14.613 24.5901 14.0352 23.8945 14.0352C23.199 14.0352 22.6333 14.613 22.6333 15.3235V34.3848C22.6333 34.934 22.2926 35.426 21.7782 35.6191C21.2643 35.8121 20.6836 35.6661 20.3223 35.2525L15.2374 29.4357C14.9979 29.2091 14.6853 29.0838 14.353 29.0821C14.0125 29.0857 13.6969 29.2084 13.4626 29.4433C12.9601 29.9457 13.3111 30.8536 13.6939 31.5269C15.161 34.1042 16.7761 36.566 18.2014 38.7378L18.2078 38.7476C19.2831 40.3867 20.2986 41.9345 21.0635 43.2534C21.5646 44.1176 22.5891 46.2246 23.1357 47.3621H38.0082C38.9413 44.3493 40.6322 38.4346 40.6322 36.2345V27.2369C40.6322 26.5263 40.0665 25.9482 39.3711 25.9482Z" fill="black"/>
</svg>
